<svg width="242" height="60" viewBox="0 0 242 60" fill="none" xmlns="http://www.w3.org/2000/svg">
<path d="M13.44 21.76C16.0533 21.76 18.1867 22.5733 19.84 24.2C21.4933 25.8 22.32 28.1333 22.32 31.2V44H19.56V31.52C19.56 29.1467 18.96 27.3333 17.76 26.08C16.5867 24.8267 14.9733 24.2 12.92 24.2C10.8133 24.2 9.13333 24.8667 7.88 26.2C6.62667 27.5333 6 29.4933 6 32.08V44H3.2V22.16H6V25.88C6.69333 24.5467 7.69333 23.5333 9 22.84C10.3067 22.12 11.7867 21.76 13.44 21.76ZM38.0725 44.32C36.0192 44.32 34.1658 43.8667 32.5125 42.96C30.8858 42.0267 29.5925 40.72 28.6325 39.04C27.6992 37.3333 27.2325 35.3467 27.2325 33.08C27.2325 30.8133 27.7125 28.84 28.6725 27.16C29.6325 25.4533 30.9392 24.1467 32.5925 23.24C34.2458 22.3067 36.0992 21.84 38.1525 21.84C40.2058 21.84 42.0592 22.3067 43.7125 23.24C45.3925 24.1467 46.6992 25.4533 47.6325 27.16C48.5925 28.84 49.0725 30.8133 49.0725 33.08C49.0725 35.32 48.5925 37.2933 47.6325 39C46.6725 40.7067 45.3525 42.0267 43.6725 42.96C41.9925 43.8667 40.1258 44.32 38.0725 44.32ZM38.0725 41.88C39.5125 41.88 40.8458 41.56 42.0725 40.92C43.2992 40.2533 44.2858 39.2667 45.0325 37.96C45.8058 36.6267 46.1925 35 46.1925 33.08C46.1925 31.16 45.8192 29.5467 45.0725 28.24C44.3258 26.9067 43.3392 25.92 42.1125 25.28C40.8858 24.6133 39.5525 24.28 38.1125 24.28C36.6725 24.28 35.3392 24.6133 34.1125 25.28C32.8858 25.92 31.8992 26.9067 31.1525 28.24C30.4325 29.5467 30.0725 31.16 30.0725 33.08C30.0725 35 30.4325 36.6267 31.1525 37.96C31.8992 39.2667 32.8725 40.2533 34.0725 40.92C35.2992 41.56 36.6325 41.88 38.0725 41.88ZM63.3366 21.84C65.3899 21.84 67.1766 22.32 68.6966 23.28C70.2166 24.24 71.3099 25.4533 71.9766 26.92V22.16H74.7766V44.56C74.7766 46.56 74.3366 48.3333 73.4566 49.88C72.6032 51.4267 71.4032 52.6133 69.8566 53.44C68.3099 54.2933 66.5499 54.72 64.5766 54.72C61.7766 54.72 59.4432 54.0533 57.5766 52.72C55.7366 51.3867 54.5899 49.5733 54.1366 47.28H56.8966C57.3766 48.8 58.2832 50.0133 59.6166 50.92C60.9766 51.8267 62.6299 52.28 64.5766 52.28C65.9899 52.28 67.2566 51.9733 68.3766 51.36C69.4966 50.7733 70.3766 49.8933 71.0166 48.72C71.6566 47.5467 71.9766 46.16 71.9766 44.56V39.16C71.2832 40.6533 70.1766 41.8933 68.6566 42.88C67.1632 43.84 65.3899 44.32 63.3366 44.32C61.3366 44.32 59.5366 43.8533 57.9366 42.92C56.3632 41.9867 55.1232 40.6667 54.2166 38.96C53.3366 37.2533 52.8966 35.28 52.8966 33.04C52.8966 30.8 53.3366 28.84 54.2166 27.16C55.1232 25.4533 56.3632 24.1467 57.9366 23.24C59.5366 22.3067 61.3366 21.84 63.3366 21.84ZM71.9766 33.08C71.9766 31.32 71.6166 29.7733 70.8966 28.44C70.1766 27.1067 69.1899 26.08 67.9366 25.36C66.7099 24.64 65.3499 24.28 63.8566 24.28C62.3099 24.28 60.9232 24.6267 59.6966 25.32C58.4699 26.0133 57.4966 27.0267 56.7766 28.36C56.0832 29.6667 55.7366 31.2267 55.7366 33.04C55.7366 34.8267 56.0832 36.4 56.7766 37.76C57.4966 39.0933 58.4699 40.12 59.6966 40.84C60.9232 41.5333 62.3099 41.88 63.8566 41.88C65.3499 41.88 66.7099 41.52 67.9366 40.8C69.1899 40.08 70.1766 39.0533 70.8966 37.72C71.6166 36.3867 71.9766 34.84 71.9766 33.08ZM79.8888 33.04C79.8888 30.8 80.3288 28.84 81.2088 27.16C82.1154 25.4533 83.3554 24.1467 84.9288 23.24C86.5288 22.3067 88.3288 21.84 90.3288 21.84C92.4088 21.84 94.1954 22.32 95.6888 23.28C97.2088 24.24 98.3021 25.4667 98.9688 26.96V22.16H101.769V44H98.9688V39.16C98.2754 40.6533 97.1688 41.8933 95.6488 42.88C94.1554 43.84 92.3688 44.32 90.2888 44.32C88.3154 44.32 86.5288 43.8533 84.9288 42.92C83.3554 41.9867 82.1154 40.6667 81.2088 38.96C80.3288 37.2533 79.8888 35.28 79.8888 33.04ZM98.9688 33.08C98.9688 31.32 98.6088 29.7733 97.8888 28.44C97.1688 27.1067 96.1821 26.08 94.9288 25.36C93.7021 24.64 92.3421 24.28 90.8488 24.28C89.3021 24.28 87.9154 24.6267 86.6888 25.32C85.4621 26.0133 84.4888 27.0267 83.7688 28.36C83.0754 29.6667 82.7288 31.2267 82.7288 33.04C82.7288 34.8267 83.0754 36.4 83.7688 37.76C84.4888 39.0933 85.4621 40.12 86.6888 40.84C87.9154 41.5333 89.3021 41.88 90.8488 41.88C92.3421 41.88 93.7021 41.52 94.9288 40.8C96.1821 40.08 97.1688 39.0533 97.8888 37.72C98.6088 36.3867 98.9688 34.84 98.9688 33.08ZM121.938 26.04C122.551 24.68 123.484 23.6267 124.738 22.88C126.018 22.1333 127.578 21.76 129.418 21.76V24.68H128.658C126.631 24.68 125.004 25.2267 123.778 26.32C122.551 27.4133 121.938 29.24 121.938 31.8V44H119.138V22.16H121.938V26.04ZM143.19 44.32C141.136 44.32 139.283 43.8667 137.63 42.96C136.003 42.0267 134.71 40.72 133.75 39.04C132.816 37.3333 132.35 35.3467 132.35 33.08C132.35 30.8133 132.83 28.84 133.79 27.16C134.75 25.4533 136.056 24.1467 137.71 23.24C139.363 22.3067 141.216 21.84 143.27 21.84C145.323 21.84 147.176 22.3067 148.83 23.24C150.51 24.1467 151.816 25.4533 152.75 27.16C153.71 28.84 154.19 30.8133 154.19 33.08C154.19 35.32 153.71 37.2933 152.75 39C151.79 40.7067 150.47 42.0267 148.79 42.96C147.11 43.8667 145.243 44.32 143.19 44.32ZM143.19 41.88C144.63 41.88 145.963 41.56 147.19 40.92C148.416 40.2533 149.403 39.2667 150.15 37.96C150.923 36.6267 151.31 35 151.31 33.08C151.31 31.16 150.936 29.5467 150.19 28.24C149.443 26.9067 148.456 25.92 147.23 25.28C146.003 24.6133 144.67 24.28 143.23 24.28C141.79 24.28 140.456 24.6133 139.23 25.28C138.003 25.92 137.016 26.9067 136.27 28.24C135.55 29.5467 135.19 31.16 135.19 33.08C135.19 35 135.55 36.6267 136.27 37.96C137.016 39.2667 137.99 40.2533 139.19 40.92C140.416 41.56 141.75 41.88 143.19 41.88ZM166.814 44.32C164.307 44.32 162.254 43.7467 160.654 42.6C159.08 41.4267 158.2 39.84 158.014 37.84H160.894C161.027 39.0667 161.6 40.0667 162.614 40.84C163.654 41.5867 165.04 41.96 166.774 41.96C168.294 41.96 169.48 41.6 170.334 40.88C171.214 40.16 171.654 39.2667 171.654 38.2C171.654 37.4533 171.414 36.84 170.934 36.36C170.454 35.88 169.84 35.5067 169.094 35.24C168.374 34.9467 167.387 34.64 166.134 34.32C164.507 33.8933 163.187 33.4667 162.174 33.04C161.16 32.6133 160.294 31.9867 159.574 31.16C158.88 30.3067 158.534 29.1733 158.534 27.76C158.534 26.6933 158.854 25.7067 159.494 24.8C160.134 23.8933 161.04 23.1733 162.214 22.64C163.387 22.1067 164.72 21.84 166.214 21.84C168.56 21.84 170.454 22.44 171.894 23.64C173.334 24.8133 174.107 26.44 174.214 28.52H171.414C171.334 27.24 170.827 26.2133 169.894 25.44C168.987 24.64 167.734 24.24 166.134 24.24C164.72 24.24 163.574 24.5733 162.694 25.24C161.814 25.9067 161.374 26.7333 161.374 27.72C161.374 28.5733 161.627 29.28 162.134 29.84C162.667 30.3733 163.32 30.8 164.094 31.12C164.867 31.4133 165.907 31.7467 167.214 32.12C168.787 32.5467 170.04 32.96 170.974 33.36C171.907 33.76 172.707 34.3467 173.374 35.12C174.04 35.8933 174.387 36.92 174.414 38.2C174.414 39.3733 174.094 40.4267 173.454 41.36C172.814 42.2667 171.92 42.9867 170.774 43.52C169.627 44.0533 168.307 44.32 166.814 44.32ZM189.924 21.76C192.538 21.76 194.671 22.5733 196.324 24.2C197.978 25.8 198.804 28.1333 198.804 31.2V44H196.044V31.52C196.044 29.1467 195.444 27.3333 194.244 26.08C193.071 24.8267 191.458 24.2 189.404 24.2C187.298 24.2 185.618 24.8667 184.364 26.2C183.111 27.5333 182.484 29.4933 182.484 32.08V44H179.684V22.16H182.484V25.88C183.178 24.5467 184.178 23.5333 185.484 22.84C186.791 22.12 188.271 21.76 189.924 21.76ZM224.757 31.96C224.757 32.92 224.73 33.6533 224.677 34.16H206.557C206.637 35.8133 207.037 37.2267 207.757 38.4C208.477 39.5733 209.424 40.4667 210.597 41.08C211.77 41.6667 213.05 41.96 214.437 41.96C216.25 41.96 217.77 41.52 218.997 40.64C220.25 39.76 221.077 38.5733 221.477 37.08H224.437C223.904 39.2133 222.757 40.96 220.997 42.32C219.264 43.6533 217.077 44.32 214.437 44.32C212.384 44.32 210.544 43.8667 208.917 42.96C207.29 42.0267 206.01 40.72 205.077 39.04C204.17 37.3333 203.717 35.3467 203.717 33.08C203.717 30.8133 204.17 28.8267 205.077 27.12C205.984 25.4133 207.25 24.1067 208.877 23.2C210.504 22.2933 212.357 21.84 214.437 21.84C216.517 21.84 218.33 22.2933 219.877 23.2C221.45 24.1067 222.65 25.3333 223.477 26.88C224.33 28.4 224.757 30.0933 224.757 31.96ZM221.917 31.88C221.944 30.2533 221.61 28.8667 220.917 27.72C220.25 26.5733 219.33 25.7067 218.157 25.12C216.984 24.5333 215.704 24.24 214.317 24.24C212.237 24.24 210.464 24.9067 208.997 26.24C207.53 27.5733 206.717 29.4533 206.557 31.88H221.917ZM232.68 26.04C233.293 24.68 234.226 23.6267 235.48 22.88C236.76 22.1333 238.32 21.76 240.16 21.76V24.68H239.4C237.373 24.68 235.746 25.2267 234.52 26.32C233.293 27.4133 232.68 29.24 232.68 31.8V44H229.88V22.16H232.68V26.04Z" fill="#181818"/>
<ellipse cx="38.5" cy="33" rx="9.5" ry="9" fill="#181818"/>
<ellipse cx="143.5" cy="33" rx="9.5" ry="9" fill="#181818"/>
</svg>
