<svg width="500" height="500" viewBox="0 0 500 500" fill="none" xmlns="http://www.w3.org/2000/svg">
<rect width="500" height="500" fill="white"/>
<path d="M426.935 412.081L346.478 276.282H286.485V412.081H253.93V87H351.594C387.869 87 415.308 95.6812 433.91 113.044C452.823 130.406 462.28 153.194 462.28 181.408C462.28 204.972 455.459 225.124 441.817 241.867C428.485 258.299 408.642 268.996 382.288 273.956L466 412.081H426.935ZM286.485 249.773H352.059C377.483 249.773 396.55 243.572 409.262 231.17C422.284 218.769 428.795 202.181 428.795 181.408C428.795 160.015 422.594 143.583 410.192 132.111C397.79 120.33 378.258 114.439 351.594 114.439H286.485V249.773Z" fill="#181818"/>
<path d="M285.09 412.081H252.535L72.5546 138.622V412.081H40V87H72.5546L252.535 359.993V87H285.09V412.081Z" fill="#181818"/>
</svg>
